<svg width="95" height="53" viewBox="0 0 95 53" fill="none" xmlns="http://www.w3.org/2000/svg">
<rect width="94.2727" height="53" rx="6" fill="white"/>
<path fill-rule="evenodd" clip-rule="evenodd" d="M20.2301 10.8906C21.195 10.8906 21.9773 11.6671 21.9773 12.625V18.4062C21.9773 19.3641 21.195 20.1406 20.2301 20.1406C19.2652 20.1406 18.4829 19.3641 18.4829 18.4062V12.625C18.4829 11.6671 19.2652 10.8906 20.2301 10.8906Z" fill="#1B1D1E"/>
<path fill-rule="evenodd" clip-rule="evenodd" d="M20.2301 23.0312C21.195 23.0312 21.9773 23.8078 21.9773 24.7656V40.375C21.9773 41.3329 21.195 42.1094 20.2301 42.1094C19.2652 42.1094 18.4829 41.3329 18.4829 40.375V24.7656C18.4829 23.8078 19.2652 23.0312 20.2301 23.0312Z" fill="#1B1D1E"/>
<path fill-rule="evenodd" clip-rule="evenodd" d="M14.9886 10.8906C15.9536 10.8906 16.7358 11.6671 16.7358 12.625V19.5625C16.7358 20.4825 17.104 21.3648 17.7593 22.0153C18.4146 22.6658 19.3034 23.0312 20.2301 23.0312C21.1569 23.0312 22.0457 22.6658 22.701 22.0153C23.3563 21.3648 23.7244 20.4825 23.7244 19.5625V12.625C23.7244 11.6671 24.5067 10.8906 25.4716 10.8906C26.4365 10.8906 27.2188 11.6671 27.2188 12.625V19.5625C27.2188 21.4024 26.4825 23.167 25.1718 24.4681C23.8612 25.7691 22.0836 26.5 20.2301 26.5C18.3766 26.5 16.599 25.7691 15.2884 24.4681C13.9778 23.167 13.2415 21.4024 13.2415 19.5625V12.625C13.2415 11.6671 14.0237 10.8906 14.9886 10.8906Z" fill="#1B1D1E"/>
<path fill-rule="evenodd" clip-rule="evenodd" d="M38.704 11.2044C39.1709 11.529 39.4489 12.0592 39.4489 12.625V40.375C39.4489 41.3329 38.6666 42.1094 37.7017 42.1094C36.7368 42.1094 35.9545 41.3329 35.9545 40.375V32.8594H29.5483C29.0525 32.8594 28.5801 32.6503 28.2487 32.2842C27.9173 31.9182 27.7583 31.4296 27.8111 30.9402L29.5483 31.125C27.8111 30.9402 27.811 30.9407 27.8111 30.9402L27.8117 30.9348L27.8129 30.9234L27.8174 30.8834C27.8213 30.8491 27.8271 30.7999 27.8347 30.7366C27.85 30.6099 27.8729 30.4269 27.9042 30.1949C27.9667 29.731 28.0629 29.07 28.1985 28.2712C28.4692 26.6778 28.9003 24.5166 29.5417 22.2694C30.1793 20.0352 31.0449 17.6442 32.2095 15.6283C33.3519 13.6511 34.9281 11.7807 37.1046 10.9951C37.6402 10.8017 38.2372 10.8799 38.704 11.2044ZM31.5547 29.3906H35.9545V16.2502C35.714 16.5795 35.4757 16.9473 35.2407 17.3541C34.276 19.0238 33.5035 21.1133 32.9036 23.215C32.3075 25.3038 31.9014 27.334 31.6442 28.8479C31.612 29.0375 31.5822 29.2188 31.5547 29.3906Z" fill="#1B1D1E"/>
<path d="M54.1689 11C54.7037 11 55.2003 11.0689 55.6586 11.2068C56.1229 11.3446 56.5254 11.5514 56.8663 11.8271C57.213 12.0969 57.4833 12.4355 57.6772 12.8431C57.877 13.2507 57.9769 13.7272 57.9769 14.2726V19.8469C57.9769 20.3144 57.927 20.728 57.8271 21.0876C57.7272 21.4412 57.595 21.7499 57.4304 22.0136C57.2718 22.2714 57.0896 22.4931 56.8839 22.6789C56.6782 22.8588 56.4696 23.0056 56.258 23.1195C55.7527 23.3952 55.1797 23.551 54.5391 23.587H51.6126C51.2776 23.587 51.0191 23.5301 50.8369 23.4162C50.6547 23.2963 50.5225 23.1405 50.4402 22.9487C50.3579 22.7509 50.308 22.5291 50.2904 22.2834C50.2786 22.0376 50.2727 21.7829 50.2727 21.5191V13.0499C50.2727 12.7922 50.2786 12.5404 50.2904 12.2947C50.308 12.0489 50.3579 11.8301 50.4402 11.6383C50.5225 11.4465 50.6547 11.2937 50.8369 11.1798C51.0191 11.0599 51.2776 11 51.6126 11H54.1689ZM52.9525 13.1038V21.4472H54.0984C54.3511 21.4352 54.5773 21.3753 54.7771 21.2674C54.8594 21.2254 54.9417 21.1685 55.024 21.0966C55.1062 21.0247 55.1797 20.9407 55.2443 20.8448C55.309 20.7429 55.3589 20.6231 55.3942 20.4852C55.4353 20.3474 55.4559 20.1885 55.4559 20.0087V14.7042C55.4559 14.5064 55.4353 14.3326 55.3942 14.1827C55.3589 14.0269 55.309 13.892 55.2443 13.7781C55.1797 13.6642 55.1062 13.5683 55.024 13.4904C54.9417 13.4125 54.8594 13.3496 54.7771 13.3016C54.5773 13.1877 54.3511 13.1218 54.0984 13.1038H52.9525Z" fill="#1B1D1E"/>
<path d="M66.7742 21.5551C66.7742 21.8068 66.7654 22.0556 66.7478 22.3013C66.7301 22.5411 66.6772 22.7569 66.5891 22.9487C66.5009 23.1405 66.3687 23.2963 66.1924 23.4162C66.0161 23.5301 65.7693 23.587 65.452 23.587C65.1288 23.587 64.8761 23.5331 64.6939 23.4252C64.5117 23.3113 64.3766 23.1764 64.2884 23.0206C64.2003 22.8588 64.1444 22.6909 64.1209 22.5171C64.1033 22.3433 64.0945 22.1964 64.0945 22.0766C64.0416 22.2504 63.9652 22.4272 63.8653 22.607C63.7713 22.7868 63.6479 22.9487 63.4951 23.0925C63.3423 23.2364 63.1572 23.3562 62.9397 23.4521C62.7282 23.5421 62.4784 23.587 62.1905 23.587C61.8673 23.587 61.544 23.5331 61.2208 23.4252C60.8976 23.3173 60.6067 23.1375 60.3482 22.8857C60.0896 22.634 59.878 22.3073 59.7135 21.9057C59.5548 21.4982 59.4755 20.9977 59.4755 20.4043V17.797C59.4755 17.1976 59.5548 16.6971 59.7135 16.2955C59.878 15.888 60.0896 15.5613 60.3482 15.3155C60.6067 15.0638 60.8976 14.884 61.2208 14.7761C61.544 14.6682 61.8673 14.6143 62.1905 14.6143C62.4784 14.6143 62.7282 14.6592 62.9397 14.7491C63.1572 14.839 63.3423 14.9559 63.4951 15.0998C63.6479 15.2436 63.7713 15.4055 63.8653 15.5853C63.9652 15.7651 64.0416 15.9449 64.0945 16.1247C64.0945 15.825 64.1356 15.5763 64.2179 15.3785C64.3002 15.1807 64.4059 15.0248 64.5352 14.911C64.6645 14.7911 64.8085 14.7102 64.9672 14.6682C65.1317 14.6203 65.2933 14.5963 65.452 14.5963C65.7458 14.5963 65.9809 14.6562 66.1572 14.7761C66.3335 14.89 66.4657 15.0428 66.5538 15.2346C66.6479 15.4204 66.7066 15.6392 66.7301 15.891C66.7595 16.1367 66.7742 16.3884 66.7742 16.6462V21.5551ZM62.1905 20.1705C62.1905 20.3324 62.1963 20.4912 62.2081 20.647C62.2198 20.8029 62.2522 20.9437 62.3051 21.0696C62.3579 21.1955 62.4343 21.2974 62.5342 21.3753C62.64 21.4472 62.784 21.4832 62.9662 21.4832C63.1954 21.4832 63.3805 21.4322 63.5215 21.3303C63.6684 21.2224 63.783 21.0606 63.8653 20.8448C63.9476 20.6231 64.0034 20.3474 64.0328 20.0177C64.068 19.682 64.0886 19.2834 64.0945 18.8219C64.0945 18.6361 64.0768 18.4233 64.0416 18.1836C64.0122 17.9378 63.9564 17.7071 63.8741 17.4913C63.7918 17.2755 63.6772 17.0927 63.5303 16.9429C63.3834 16.793 63.1954 16.7181 62.9662 16.7181C62.784 16.7181 62.64 16.7571 62.5342 16.835C62.4343 16.9069 62.3579 17.0028 62.3051 17.1227C62.2522 17.2426 62.2198 17.3804 62.2081 17.5363C62.1963 17.6861 62.1905 17.8389 62.1905 17.9948V20.1705Z" fill="#1B1D1E"/>
<path d="M69.0837 16.6102C69.0837 16.3585 69.0955 16.1127 69.119 15.873C69.1483 15.6332 69.2101 15.4204 69.3041 15.2346C69.3981 15.0428 69.5333 14.89 69.7096 14.7761C69.8859 14.6562 70.1239 14.5963 70.4236 14.5963C70.7233 14.5963 70.9613 14.6562 71.1376 14.7761C71.3139 14.89 71.449 15.0428 71.5431 15.2346C71.6371 15.4204 71.6958 15.6332 71.7194 15.873C71.7487 16.1127 71.7634 16.3585 71.7634 16.6102V21.5731C71.7634 21.8248 71.7487 22.0736 71.7194 22.3193C71.6958 22.5591 71.6371 22.7748 71.5431 22.9666C71.449 23.1525 71.3139 23.3023 71.1376 23.4162C70.9613 23.5301 70.7233 23.587 70.4236 23.587C70.1239 23.587 69.8859 23.5301 69.7096 23.4162C69.5333 23.3023 69.3981 23.1525 69.3041 22.9666C69.2101 22.7748 69.1483 22.5591 69.119 22.3193C69.0955 22.0736 69.0837 21.8248 69.0837 21.5731V16.6102ZM71.7811 12.3666C71.7811 12.8281 71.6635 13.1728 71.4285 13.4005C71.1934 13.6223 70.8643 13.7332 70.4412 13.7332C70.0181 13.7332 69.689 13.6223 69.4539 13.4005C69.2189 13.1728 69.1013 12.8281 69.1013 12.3666C69.1013 11.8871 69.2189 11.5394 69.4539 11.3237C69.689 11.1079 70.0181 11 70.4412 11C70.8937 11 71.2287 11.1079 71.4461 11.3237C71.6694 11.5394 71.7811 11.8871 71.7811 12.3666Z" fill="#1B1D1E"/>
<path d="M74.4784 12.9959C74.4784 12.7442 74.4902 12.4985 74.5137 12.2587C74.5431 12.0189 74.6048 11.8062 74.6988 11.6204C74.7928 11.4346 74.928 11.2847 75.1043 11.1708C75.2806 11.0569 75.5186 11 75.8183 11C76.1239 11 76.3648 11.0569 76.5411 11.1708C76.7174 11.2847 76.8496 11.4346 76.9378 11.6204C77.0318 11.8062 77.0906 12.0189 77.1141 12.2587C77.1435 12.4985 77.1581 12.7442 77.1581 12.9959V21.5731C77.1581 21.8248 77.1435 22.0736 77.1141 22.3193C77.0906 22.5591 77.0318 22.7748 76.9378 22.9666C76.8496 23.1525 76.7174 23.3023 76.5411 23.4162C76.3648 23.5301 76.1239 23.587 75.8183 23.587C75.5186 23.587 75.2806 23.5301 75.1043 23.4162C74.928 23.3023 74.7928 23.1525 74.6988 22.9666C74.6048 22.7748 74.5431 22.5591 74.5137 22.3193C74.4902 22.0736 74.4784 21.8248 74.4784 21.5731V12.9959Z" fill="#1B1D1E"/>
<path d="M80.4373 27.1833C79.7673 27.1833 79.2913 27.0844 79.0093 26.8866C78.7272 26.6948 78.5862 26.4101 78.5862 26.0325C78.5862 25.8467 78.6097 25.6908 78.6567 25.565C78.7096 25.4391 78.7801 25.3372 78.8682 25.2593C78.9564 25.1814 79.0563 25.1244 79.1679 25.0885C79.2855 25.0585 79.4089 25.0435 79.5382 25.0435C79.6263 25.0435 79.7086 25.0465 79.785 25.0525C79.8614 25.0585 79.926 25.0615 79.9789 25.0615C80.0906 25.0615 80.1963 24.9926 80.2962 24.8547C80.402 24.7228 80.5019 24.555 80.5959 24.3512C80.6958 24.1474 80.7958 23.9287 80.8957 23.6949C80.9956 23.4611 81.0955 23.2454 81.1954 23.0476L81.0543 22.6879C80.8839 22.2504 80.7047 21.7919 80.5166 21.3124C80.3286 20.8269 80.1405 20.3384 79.9525 19.8469C79.7703 19.3494 79.5881 18.8549 79.4059 18.3634C79.2296 17.8719 79.068 17.3954 78.9211 16.9339C78.8565 16.7421 78.8006 16.5533 78.7536 16.3675C78.7125 16.1817 78.6919 15.9988 78.6919 15.819C78.6919 15.6452 78.7272 15.4834 78.7977 15.3335C78.8682 15.1837 78.9652 15.0548 79.0886 14.9469C79.212 14.839 79.353 14.7551 79.5117 14.6952C79.6763 14.6293 79.8496 14.5963 80.0318 14.5963C80.1963 14.5963 80.3462 14.6323 80.4814 14.7042C80.6224 14.7761 80.7458 14.875 80.8516 15.0009C80.9632 15.1267 81.0602 15.2706 81.1425 15.4324C81.2247 15.5943 81.2953 15.7651 81.354 15.9449L82.5352 19.739L83.6635 15.9449C83.7164 15.7771 83.784 15.6092 83.8663 15.4414C83.9485 15.2736 84.0455 15.1267 84.1572 15.0009C84.2688 14.869 84.3952 14.7641 84.5362 14.6862C84.6772 14.6023 84.833 14.5603 85.0034 14.5603C85.1738 14.5603 85.3354 14.5933 85.4882 14.6592C85.6469 14.7252 85.782 14.8181 85.8937 14.9379C86.0112 15.0518 86.1023 15.1897 86.167 15.3515C86.2375 15.5133 86.2727 15.6872 86.2727 15.873C86.2727 16.0528 86.2492 16.2326 86.2022 16.4124C86.1611 16.5862 86.1082 16.7601 86.0435 16.9339L83.928 22.652C83.8046 22.9756 83.6694 23.3113 83.5225 23.6589C83.3815 24.0126 83.2257 24.3572 83.0553 24.6929C82.8849 25.0285 82.7027 25.3462 82.5088 25.6459C82.3149 25.9456 82.1092 26.2093 81.8917 26.4371C81.6743 26.6648 81.4422 26.8446 81.1954 26.9765C80.9544 27.1144 80.7017 27.1833 80.4373 27.1833Z" fill="#1B1D1E"/>
<path d="M54.1689 29.413C54.7037 29.413 55.2003 29.4819 55.6586 29.6198C56.1229 29.7576 56.5254 29.9644 56.8663 30.2401C57.213 30.5099 57.4833 30.8485 57.6772 31.2561C57.877 31.6637 57.9769 32.1402 57.9769 32.6856V38.2599C57.9769 38.7274 57.927 39.141 57.8271 39.5006C57.7272 39.8542 57.595 40.1629 57.4304 40.4266C57.2718 40.6844 57.0896 40.9061 56.8839 41.0919C56.6782 41.2718 56.4696 41.4186 56.258 41.5325C55.7527 41.8082 55.1797 41.964 54.5391 42H51.6126C51.2776 42 51.0191 41.9431 50.8369 41.8292C50.6547 41.7093 50.5225 41.5535 50.4402 41.3617C50.3579 41.1639 50.308 40.9421 50.2904 40.6963C50.2786 40.4506 50.2727 40.1959 50.2727 39.9321V31.4629C50.2727 31.2051 50.2786 30.9534 50.2904 30.7077C50.308 30.4619 50.3579 30.2431 50.4402 30.0513C50.5225 29.8595 50.6547 29.7067 50.8369 29.5928C51.0191 29.4729 51.2776 29.413 51.6126 29.413H54.1689ZM52.9525 31.5168V39.8602H54.0984C54.3511 39.8482 54.5773 39.7883 54.7771 39.6804C54.8594 39.6384 54.9417 39.5815 55.024 39.5096C55.1062 39.4376 55.1797 39.3537 55.2443 39.2578C55.309 39.1559 55.3589 39.0361 55.3942 38.8982C55.4353 38.7603 55.4559 38.6015 55.4559 38.4217V33.1172C55.4559 32.9194 55.4353 32.7456 55.3942 32.5957C55.3589 32.4399 55.309 32.305 55.2443 32.1911C55.1797 32.0772 55.1062 31.9813 55.024 31.9034C54.9417 31.8255 54.8594 31.7626 54.7771 31.7146C54.5773 31.6007 54.3511 31.5348 54.0984 31.5168H52.9525Z" fill="#1B1D1E"/>
<path d="M60.0925 35.0232C60.0925 34.7715 60.1043 34.5257 60.1278 34.286C60.1572 34.0462 60.2189 33.8334 60.3129 33.6476C60.4069 33.4558 60.5421 33.303 60.7184 33.1891C60.8947 33.0692 61.1327 33.0093 61.4324 33.0093C61.7321 33.0093 61.9701 33.0692 62.1464 33.1891C62.3227 33.303 62.4578 33.4558 62.5519 33.6476C62.6459 33.8334 62.7047 34.0462 62.7282 34.286C62.7576 34.5257 62.7722 34.7715 62.7722 35.0232V39.9861C62.7722 40.2378 62.7576 40.4866 62.7282 40.7323C62.7047 40.9721 62.6459 41.1878 62.5519 41.3796C62.4578 41.5654 62.3227 41.7153 62.1464 41.8292C61.9701 41.9431 61.7321 42 61.4324 42C61.1327 42 60.8947 41.9431 60.7184 41.8292C60.5421 41.7153 60.4069 41.5654 60.3129 41.3796C60.2189 41.1878 60.1572 40.9721 60.1278 40.7323C60.1043 40.4866 60.0925 40.2378 60.0925 39.9861V35.0232ZM62.7899 30.7796C62.7899 31.2411 62.6723 31.5858 62.4373 31.8135C62.2022 32.0353 61.8731 32.1462 61.45 32.1462C61.0269 32.1462 60.6978 32.0353 60.4627 31.8135C60.2277 31.5858 60.1101 31.2411 60.1101 30.7796C60.1101 30.3001 60.2277 29.9524 60.4627 29.7367C60.6978 29.5209 61.0269 29.413 61.45 29.413C61.9025 29.413 62.2375 29.5209 62.4549 29.7367C62.6782 29.9524 62.7899 30.3001 62.7899 30.7796Z" fill="#1B1D1E"/>
<path d="M72.5039 36.8753C72.5039 36.9712 72.498 37.0851 72.4863 37.2169C72.4745 37.3428 72.4275 37.4657 72.3452 37.5856C72.2688 37.6994 72.1454 37.7983 71.975 37.8823C71.8046 37.9662 71.5636 38.0081 71.2522 38.0081H67.7438V38.8712C67.7438 39.0151 67.7615 39.1649 67.7967 39.3208C67.832 39.4766 67.8908 39.6205 67.973 39.7523C68.0612 39.8842 68.1758 39.9921 68.3168 40.076C68.4578 40.1599 68.6312 40.2019 68.8369 40.2019C69.072 40.2019 69.2512 40.1749 69.3746 40.1209C69.5039 40.061 69.6038 39.9891 69.6743 39.9052C69.7507 39.8212 69.8183 39.7313 69.877 39.6354C69.9358 39.5395 70.0122 39.4496 70.1062 39.3657C70.2061 39.2818 70.3413 39.2129 70.5117 39.1589C70.688 39.099 70.929 39.069 71.2345 39.069C71.3815 39.069 71.5225 39.081 71.6577 39.105C71.7987 39.129 71.9221 39.1739 72.0279 39.2398C72.1337 39.3058 72.2189 39.3987 72.2835 39.5186C72.3482 39.6324 72.3805 39.7823 72.3805 39.9681C72.3805 40.3577 72.26 40.6844 72.0191 40.9481C71.7781 41.2058 71.4755 41.4126 71.1111 41.5684C70.7468 41.7243 70.3501 41.8352 69.9211 41.9011C69.498 41.967 69.1013 42 68.7311 42C68.2434 41.994 67.7791 41.9311 67.3384 41.8112C66.8976 41.6913 66.5068 41.4995 66.166 41.2358C65.831 40.9721 65.5636 40.6274 65.3638 40.2019C65.164 39.7763 65.0641 39.2548 65.0641 38.6375V36.5336C65.0641 35.9642 65.1288 35.4817 65.258 35.0861C65.3932 34.6905 65.5666 34.3609 65.7781 34.0972C65.9897 33.8334 66.2277 33.6296 66.4921 33.4858C66.7566 33.3359 67.024 33.2251 67.2943 33.1531C67.5646 33.0812 67.8202 33.0363 68.0612 33.0183C68.308 33.0003 68.5196 32.9913 68.6958 32.9913C69.2894 32.9913 69.7948 33.0452 70.212 33.1531C70.6351 33.261 70.9877 33.4019 71.2698 33.5757C71.5519 33.7495 71.7752 33.9503 71.9397 34.1781C72.1043 34.4058 72.2277 34.6426 72.31 34.8883C72.3922 35.1281 72.4451 35.3738 72.4686 35.6256C72.4921 35.8713 72.5039 36.1021 72.5039 36.3179V36.8753ZM67.7438 36.6595H69.9476C69.9476 36.3778 69.9387 36.1291 69.9211 35.9133C69.9094 35.6915 69.8653 35.5057 69.7889 35.3559C69.7184 35.206 69.6038 35.0921 69.4451 35.0142C69.2923 34.9363 69.072 34.8973 68.784 34.8973C68.5431 34.8973 68.3521 34.9363 68.211 35.0142C68.0759 35.0921 67.973 35.191 67.9025 35.3109C67.832 35.4248 67.7879 35.5477 67.7703 35.6795C67.7527 35.8114 67.7438 35.9283 67.7438 36.0302V36.6595Z" fill="#1B1D1E"/>
<path d="M75.5186 33.0093V31.4269C75.5186 31.1752 75.5303 30.9294 75.5538 30.6897C75.5832 30.4499 75.6449 30.2371 75.7389 30.0513C75.833 29.8595 75.9681 29.7067 76.1444 29.5928C76.3207 29.4729 76.5587 29.413 76.8584 29.413C77.1523 29.413 77.3873 29.4729 77.5636 29.5928C77.7399 29.7067 77.8721 29.8595 77.9603 30.0513C78.0543 30.2371 78.1131 30.4499 78.1366 30.6897C78.166 30.9294 78.1807 31.1752 78.1807 31.4269V33.0093H78.9035C79.0563 33.0093 79.2091 33.0183 79.3619 33.0363C79.5147 33.0482 79.6498 33.0902 79.7673 33.1621C79.8908 33.234 79.9877 33.3419 80.0582 33.4858C80.1346 33.6296 80.1728 33.8304 80.1728 34.0882C80.1728 34.3339 80.1346 34.5287 80.0582 34.6726C79.9877 34.8164 79.8908 34.9243 79.7673 34.9962C79.6498 35.0682 79.5147 35.1161 79.3619 35.1401C79.2091 35.1581 79.0563 35.1671 78.9035 35.1671H78.1807V38.3138C78.1807 38.4337 78.1836 38.5625 78.1895 38.7004C78.2012 38.8323 78.2336 38.9551 78.2864 39.069C78.3393 39.1829 78.4187 39.2788 78.5244 39.3567C78.6302 39.4287 78.7801 39.4646 78.974 39.4646C79.1856 39.4646 79.3648 39.4826 79.5117 39.5186C79.6645 39.5485 79.7879 39.6055 79.8819 39.6894C79.9818 39.7733 80.0553 39.8902 80.1023 40.04C80.1493 40.1899 80.1728 40.3817 80.1728 40.6154C80.1728 40.8552 80.117 41.062 80.0054 41.2358C79.8996 41.4096 79.7556 41.5535 79.5734 41.6673C79.3912 41.7812 79.1797 41.8651 78.9387 41.9191C78.6978 41.973 78.4451 42 78.1807 42C77.7634 42 77.405 41.955 77.1053 41.8651C76.8114 41.7752 76.5646 41.6494 76.3648 41.4875C76.1709 41.3197 76.0151 41.1219 75.8976 40.8941C75.786 40.6604 75.7007 40.3997 75.642 40.1119C75.5891 39.8242 75.5538 39.5156 75.5362 39.1859C75.5244 38.8503 75.5186 38.4996 75.5186 38.134V35.1671H75.0249C74.8721 35.1671 74.7194 35.1581 74.5666 35.1401C74.4197 35.1161 74.2874 35.0682 74.1699 34.9962C74.0524 34.9243 73.9554 34.8164 73.879 34.6726C73.8085 34.5287 73.7732 34.3339 73.7732 34.0882C73.7732 33.8304 73.8085 33.6296 73.879 33.4858C73.9554 33.3419 74.0524 33.234 74.1699 33.1621C74.2874 33.0902 74.4197 33.0482 74.5666 33.0363C74.7194 33.0183 74.8721 33.0093 75.0249 33.0093H75.5186Z" fill="#1B1D1E"/>
</svg>
